<?xml version="1.0" encoding="UTF-8"?><svg id="Capa_1" xmlns="http://www.w3.org/2000/svg" viewBox="0 0 5.1 1.04"><defs><style>.cls-1{fill:#d8d81e;}</style></defs><polygon class="cls-1" points=".55 0 .72 .34 1.1 .4 .82 .67 .89 1.04 .55 .86 .21 1.04 .27 .67 0 .4 .38 .34 .55 0"/><polygon class="cls-1" points="1.55 0 1.72 .34 2.1 .4 1.82 .67 1.89 1.04 1.55 .86 1.21 1.04 1.27 .67 1 .4 1.38 .34 1.55 0"/><polygon class="cls-1" points="2.55 0 2.72 .34 3.1 .4 2.82 .67 2.89 1.04 2.55 .86 2.21 1.04 2.27 .67 2 .4 2.38 .34 2.55 0"/><polygon class="cls-1" points="3.55 0 3.72 .34 4.1 .4 3.82 .67 3.89 1.04 3.55 .86 3.21 1.04 3.27 .67 3 .4 3.38 .34 3.55 0"/><polygon class="cls-1" points="4.55 0 4.72 .34 5.1 .4 4.82 .67 4.89 1.04 4.55 .86 4.21 1.04 4.27 .67 4 .4 4.38 .34 4.55 0"/></svg>